####
#
# OBJ File Generated by Meshlab
#
####
# Object bullet.obj
#
# Vertices: 10
# Faces: 8
#
####
vn 0.0000000 0.0000000 1.0000000
v 0.0596750 -0.0245580 0.0000030 0.000000 0.000000 0.000000
vn 0.0000000 0.0000000 1.0000000
v 0.0596750 -0.0562410 0.0000030 0.000000 0.000000 0.000000
vn 0.0000000 0.0000000 1.0000000
v 0.0786850 -0.0752510 0.0000030 0.000000 0.000000 0.000000
vn 0.0000000 0.0000000 1.0000000
v 0.1309620 -0.0562410 0.0000030 0.000000 0.000000 0.000000
vn 0.0000000 0.0000000 1.0000000
v 0.0786850 -0.0039640 0.0000030 0.000000 0.000000 0.000000
vn 0.0000000 0.0000000 1.0000000
v 0.1103680 -0.0752510 0.0000030 0.000000 0.000000 0.000000
vn 0.0000000 0.0000000 1.0000000
v 0.1584890 0.0752380 0.0000030 0.000000 0.000000 0.000000
vn 0.0000000 0.0000000 1.0000000
v 0.2101630 0.0235620 0.0000030 0.000000 0.000000 0.000000
vn 0.0000000 0.0000000 1.0000000
v 0.1911600 0.0752440 0.0000030 0.000000 0.000000 0.000000
vn 0.0000000 0.0000000 1.0000000
v 0.2101700 0.0562340 0.0000030 0.000000 0.000000 0.000000
# 10 vertices, 0 vertices normals

f 4//4 1//1 2//2
f 6//6 4//4 3//3
f 8//8 10//10 9//9
f 8//8 9//9 7//7
f 3//3 4//4 2//2
f 5//5 1//1 4//4
f 7//7 5//5 4//4
f 8//8 7//7 4//4
# 8 faces, 0 coords texture

# End of File
