# Blender 3.5.1
# www.blender.org
mtllib enemy_spitter.mtl
o Plane
v -0.072871 0.000000 0.320000
v -0.066535 0.000000 0.320000
v -0.009505 0.000000 0.320000
v 0.034851 0.000000 0.320000
v -0.300990 0.000000 0.079208
v -0.300990 0.000000 0.041188
v -0.275644 0.000000 -0.079208
v -0.275644 0.000000 -0.155247
v -0.275644 0.000000 0.022178
v -0.262970 0.000000 -0.155247
v -0.275644 0.000000 0.136238
v -0.243960 0.000000 -0.117228
v -0.218614 0.000000 -0.117228
v -0.256634 0.000000 -0.060198
v -0.256634 0.000000 0.218614
v -0.275644 0.000000 0.104555
v -0.218614 0.000000 -0.199604
v -0.218614 0.000000 -0.275643
v -0.199604 0.000000 -0.256634
v -0.199604 0.000000 -0.275643
v -0.180594 0.000000 -0.212277
v -0.180594 0.000000 -0.237624
v -0.174257 0.000000 0.300990
v -0.179538 0.000000 -0.158416
v -0.167921 0.000000 0.300990
v -0.161584 0.000000 0.294653
v -0.256634 0.000000 0.155248
v -0.161584 0.000000 0.237624
v -0.167921 0.000000 -0.199604
v -0.136238 0.000000 0.237624
v -0.136238 0.000000 -0.199604
v -0.117228 0.000000 0.256634
v -0.098218 0.000000 -0.237624
v -0.098218 0.000000 -0.320000
v -0.079208 0.000000 -0.256634
v -0.079208 0.000000 -0.320000
v -0.079208 0.000000 0.313663
v -0.079208 0.000000 0.307327
v -0.085545 0.000000 0.256634
v -0.060198 0.000000 0.288317
v -0.066535 0.000000 -0.237624
v -0.060198 0.000000 0.269307
v -0.041188 0.000000 0.294653
v -0.041188 0.000000 0.281980
v -0.034852 0.000000 0.275644
v -0.034851 0.000000 -0.237624
v -0.015842 0.000000 0.313663
v -0.015842 0.000000 0.307327
v -0.009505 0.000000 0.300990
v -0.015842 0.000000 -0.256634
v -0.003168 0.000000 0.300990
v -0.009505 0.000000 0.275644
v -0.015842 0.000000 -0.300990
v 0.003168 0.000000 0.294653
v 0.003168 0.000000 0.288317
v 0.009505 0.000000 0.300990
v 0.015842 0.000000 0.288317
v 0.015842 0.000000 -0.256634
v 0.015842 0.000000 0.294653
v 0.015842 0.000000 -0.300990
v 0.022178 0.000000 0.300990
v 0.034851 0.000000 0.300990
v 0.041188 0.000000 0.313663
v 0.041188 0.000000 0.307327
v 0.028515 0.000000 0.275644
v 0.034852 0.000000 -0.237624
v 0.060198 0.000000 0.275644
v -0.256634 0.000000 0.003168
v 0.079208 0.000000 0.256634
v 0.060198 0.000000 -0.237624
v 0.079208 0.000000 -0.256634
v 0.098218 0.000000 -0.320000
v 0.079208 0.000000 -0.320000
v 0.117228 0.000000 0.256634
v 0.098218 0.000000 -0.237624
v 0.136238 0.000000 0.237624
v 0.155247 0.000000 -0.180594
v 0.161584 0.000000 -0.180594
v 0.161584 0.000000 0.300990
v 0.199604 0.000000 -0.136238
v 0.180594 0.000000 0.300990
v 0.180594 0.000000 -0.199604
v 0.180594 0.000000 -0.237624
v 0.180594 0.000000 0.294653
v 0.199604 0.000000 -0.180594
v 0.199604 0.000000 -0.256634
v 0.199604 0.000000 -0.275643
v 0.161584 0.000000 0.237624
v 0.237624 0.000000 0.079208
v 0.256634 0.000000 0.218614
v 0.218614 0.000000 -0.117228
v 0.218614 0.000000 -0.199604
v 0.218614 0.000000 -0.275643
v 0.256634 0.000000 0.199604
v 0.237624 0.000000 0.123564
v 0.256634 0.000000 -0.060198
v 0.256634 0.000000 0.060198
v 0.262970 0.000000 -0.155247
v 0.243960 0.000000 -0.117228
v 0.262970 0.000000 -0.136238
v 0.275644 0.000000 0.060198
v 0.275643 0.000000 -0.079208
v 0.275643 0.000000 -0.155247
v 0.275643 0.000000 0.180594
v 0.275643 0.000000 0.161584
v 0.262970 0.000000 0.079208
v 0.300990 0.000000 0.180594
v 0.300990 0.000000 0.161584
v 0.300990 0.000000 0.117228
v 0.320000 0.000000 0.104555
v 0.300990 0.000000 0.155248
v 0.320000 0.000000 0.155248
vn -0.0000 1.0000 -0.0000
vt 0.386139 0.000000
vt 0.396040 -0.000000
vt 0.485149 0.000000
vt 0.554456 -0.000000
vt 0.029703 0.376238
vt 0.029703 0.435644
vt 0.069307 0.623762
vt 0.069307 0.742574
vt 0.069307 0.465347
vt 0.089109 0.742574
vt 0.069307 0.287129
vt 0.118812 0.683168
vt 0.158416 0.683168
vt 0.099010 0.594059
vt 0.099010 0.158416
vt 0.069307 0.336634
vt 0.158416 0.811881
vt 0.158416 0.930693
vt 0.188119 0.900990
vt 0.188119 0.930693
vt 0.217822 0.831683
vt 0.217822 0.871287
vt 0.227723 0.029703
vt 0.217822 0.747525
vt 0.237624 0.029703
vt 0.247525 0.039604
vt 0.099010 0.257426
vt 0.247525 0.128713
vt 0.237624 0.811881
vt 0.287129 0.128713
vt 0.287129 0.811881
vt 0.316832 0.099010
vt 0.346535 0.871287
vt 0.346535 1.000000
vt 0.376238 0.900990
vt 0.376238 1.000000
vt 0.376238 0.009901
vt 0.376238 0.019802
vt 0.366337 0.099010
vt 0.405941 0.049505
vt 0.396040 0.871287
vt 0.405941 0.079208
vt 0.435644 0.039604
vt 0.435644 0.059406
vt 0.445545 0.069307
vt 0.445545 0.871287
vt 0.475248 0.009901
vt 0.475248 0.019802
vt 0.485149 0.029703
vt 0.475248 0.900990
vt 0.000000 0.000000
vt 0.495050 0.029703
vt 0.485149 0.069307
vt 0.475248 0.970297
vt 0.504951 0.039604
vt 0.504951 0.049505
vt 0.514852 0.029703
vt 0.524753 0.049505
vt 0.524753 0.900990
vt 0.524753 0.039604
vt 0.524753 0.970297
vt 0.000000 0.000000
vt 0.534654 0.029703
vt 0.554456 0.029703
vt 0.564357 0.009901
vt 0.564357 0.019802
vt 0.544555 0.069307
vt 0.554456 0.871287
vt 0.594059 0.069307
vt 0.099010 0.495050
vt 0.623762 0.099010
vt 0.594060 0.871287
vt 0.623762 0.900990
vt 0.653465 1.000000
vt 0.623762 1.000000
vt 0.683168 0.099010
vt 0.653465 0.871287
vt 0.712871 0.128713
vt 0.742575 0.782178
vt 0.752475 0.782178
vt 0.752475 0.029703
vt 0.811881 0.712871
vt 0.782178 0.029703
vt 0.782178 0.811881
vt 0.782178 0.871287
vt 0.782178 0.039604
vt 0.811881 0.782178
vt 0.811881 0.900990
vt 0.811881 0.930693
vt 0.752475 0.128713
vt 0.871287 0.376238
vt 0.900990 0.158416
vt 0.841584 0.683168
vt 0.841584 0.811881
vt 0.841584 0.930693
vt 0.900990 0.188119
vt 0.871287 0.306931
vt 0.900990 0.594059
vt 0.900990 0.405941
vt 0.910891 0.742574
vt 0.881188 0.683168
vt 0.910891 0.712871
vt 0.930693 0.405941
vt 0.930693 0.623762
vt 0.930693 0.742574
vt 0.930693 0.217822
vt 0.930693 0.247525
vt 0.910891 0.376238
vt 0.970297 0.217822
vt 0.970297 0.247525
vt 0.970297 0.316832
vt 1.000000 0.336634
vt 0.970297 0.257426
vt 1.000000 0.257426
s 0
f 16/16/1 6/6/1 5/5/1
f 16/16/1 9/9/1 6/6/1
f 12/12/1 8/8/1 7/7/1
f 13/13/1 12/12/1 14/14/1
f 24/24/1 13/13/1 14/14/1
f 28/28/1 27/27/1 15/15/1
f 21/21/1 22/22/1 17/17/1
f 19/19/1 20/20/1 17/17/1
f 25/25/1 26/26/1 23/23/1
f 68/70/1 27/27/1 28/28/1
f 31/31/1 29/29/1 24/24/1
f 68/70/1 28/28/1 30/30/1
f 39/39/1 68/70/1 30/30/1
f 68/70/1 31/31/1 24/24/1
f 35/35/1 34/34/1 33/33/1
f 41/41/1 35/35/1 33/33/1
f 35/35/1 36/36/1 34/34/1
f 1/1/1 38/38/1 37/37/1
f 2/2/1 38/38/1 1/1/1
f 68/70/1 33/33/1 31/31/1
f 43/43/1 44/44/1 40/40/1
f 52/53/1 42/42/1 45/45/1
f 65/67/1 68/70/1 42/42/1
f 3/3/1 48/48/1 47/47/1
f 51/52/1 49/49/1 3/3/1
f 58/59/1 50/50/1 68/70/1
f 58/59/1 53/54/1 50/50/1
f 56/57/1 54/55/1 51/51/1
f 59/60/1 55/56/1 54/55/1
f 57/58/1 52/53/1 55/56/1
f 61/62/1 59/60/1 56/57/1
f 66/68/1 58/59/1 68/70/1
f 4/4/1 64/66/1 62/64/1
f 70/72/1 66/68/1 77/79/1
f 96/98/1 77/79/1 68/70/1
f 75/77/1 71/73/1 70/72/1
f 76/78/1 68/70/1 69/71/1
f 77/79/1 75/77/1 70/72/1
f 84/86/1 88/90/1 79/81/1
f 94/96/1 95/97/1 68/70/1
f 94/96/1 68/70/1 88/90/1
f 89/91/1 96/98/1 68/70/1
f 85/87/1 78/80/1 80/82/1
f 92/94/1 83/85/1 82/84/1
f 91/93/1 80/82/1 96/98/1
f 85/87/1 82/84/1 78/80/1
f 90/92/1 94/96/1 88/90/1
f 93/95/1 87/89/1 86/88/1
f 93/95/1 86/88/1 92/94/1
f 105/107/1 95/97/1 94/96/1
f 106/108/1 97/99/1 89/91/1
f 102/104/1 99/101/1 96/98/1
f 102/104/1 100/102/1 99/101/1
f 102/104/1 98/100/1 100/102/1
f 107/109/1 105/107/1 104/106/1
f 109/111/1 110/112/1 101/103/1
f 112/114/1 109/111/1 111/113/1
f 110/112/1 109/111/1 112/114/1
f 94/96/1 104/106/1 105/107/1
f 12/12/1 10/10/1 8/8/1
f 14/14/1 12/12/1 7/7/1
f 27/27/1 16/16/1 11/11/1
f 16/16/1 68/70/1 9/9/1
f 68/70/1 24/24/1 14/14/1
f 22/22/1 19/19/1 17/17/1
f 17/17/1 20/20/1 18/18/1
f 26/26/1 28/28/1 15/15/1
f 27/27/1 68/70/1 16/16/1
f 24/24/1 29/29/1 21/21/1
f 32/32/1 39/39/1 30/30/1
f 2/2/1 40/40/1 38/38/1
f 68/70/1 41/41/1 33/33/1
f 40/40/1 44/44/1 42/42/1
f 44/44/1 45/45/1 42/42/1
f 42/42/1 68/70/1 39/39/1
f 68/70/1 46/46/1 41/41/1
f 52/53/1 65/67/1 42/42/1
f 3/3/1 49/49/1 48/48/1
f 58/59/1 60/61/1 53/54/1
f 56/57/1 59/60/1 54/55/1
f 59/60/1 57/58/1 55/56/1
f 57/58/1 65/67/1 52/53/1
f 4/4/1 62/64/1 61/63/1
f 63/65/1 64/66/1 4/4/1
f 67/69/1 69/71/1 65/67/1
f 77/79/1 66/68/1 68/70/1
f 69/71/1 68/70/1 65/67/1
f 71/73/1 72/74/1 73/75/1
f 74/76/1 76/78/1 69/71/1
f 75/77/1 72/74/1 71/73/1
f 96/98/1 80/82/1 77/79/1
f 88/90/1 68/70/1 76/78/1
f 80/82/1 78/80/1 77/79/1
f 81/83/1 84/86/1 79/81/1
f 95/97/1 89/91/1 68/70/1
f 89/91/1 97/99/1 96/98/1
f 85/87/1 92/94/1 82/84/1
f 92/94/1 86/88/1 83/85/1
f 96/98/1 99/101/1 91/93/1
f 106/108/1 101/103/1 97/99/1
f 102/104/1 103/105/1 98/100/1
f 107/109/1 108/110/1 105/107/1
f 51/52/1 3/3/1 4/4/1
f 51/52/1 4/4/1 61/63/1
f 15/15/1 23/23/1 26/26/1
f 17/17/1 24/24/1 21/21/1
f 68/70/1 50/50/1 46/46/1
f 106/108/1 109/111/1 101/103/1
f 84/86/1 90/92/1 88/90/1
f 2/2/1 43/43/1 40/40/1
