# Blender 3.5.1
# www.blender.org
mtllib player_ch.mtl
o Plane.001
v 0.670673 0.117326 0.253469
v 0.670673 0.117326 0.120399
v 0.715029 0.117326 0.297825
v 0.734039 0.117326 0.057033
v 0.734039 0.117326 -0.221779
v 0.753049 0.117326 -0.221779
v 0.753049 0.117326 -0.019007
v 0.772059 0.117326 0.297825
v 0.797406 0.117326 0.272479
v 0.791069 0.117326 -0.019007
v 0.816416 0.117326 -0.139403
v 0.810079 0.117326 0.272479
v 0.848099 0.117326 0.234459
v 0.835425 0.117326 -0.202769
v 0.873445 0.117326 0.234459
v 0.854435 0.117326 -0.221779
v 0.878477 0.117326 -0.267067
v 0.911465 0.117326 0.272479
v 0.930475 0.117326 0.272479
v 0.930475 0.117326 -0.304155
v 0.816416 0.117326 -0.044353
v 0.955822 0.117326 0.297825
v 1.088891 0.117326 -0.221779
v 1.012851 0.117326 -0.304155
v 0.987505 0.117326 0.297825
v 0.968978 0.117326 0.239521
v 1.012851 0.117326 0.272479
v 1.031861 0.117326 0.272479
v 1.069881 0.117326 0.234459
v 1.064849 0.117326 -0.267067
v 1.126911 0.117326 -0.038016
v 1.107901 0.117326 -0.202769
v 1.095227 0.117326 0.234459
v 1.126911 0.117326 -0.139403
v 1.133247 0.117326 0.272479
v 1.145921 0.117326 -0.019007
v 1.145921 0.117326 0.272479
v 1.209287 0.117326 0.057033
v 1.190277 0.117326 -0.019007
v 1.190277 0.117326 -0.221779
v 1.171267 0.117326 0.297825
v 1.209287 0.117326 -0.221779
v 1.228297 0.117326 0.297825
v 1.261747 0.117326 0.247132
v 1.272653 0.117326 0.120399
v 1.272653 0.117326 0.247132
v 1.272653 0.117326 0.247132
vn -0.0000 1.0000 -0.0000
vt 0.029703 0.099010
vt 0.029703 0.306931
vt 0.099010 0.029703
vt 0.128713 0.405941
vt 0.128713 0.841584
vt 0.158416 0.841584
vt 0.158416 0.524753
vt 0.188119 0.029703
vt 0.227723 0.069307
vt 0.217822 0.524753
vt 0.257426 0.712871
vt 0.247525 0.069307
vt 0.306931 0.128713
vt 0.287129 0.811881
vt 0.346535 0.128713
vt 0.316832 0.841584
vt 0.356145 0.910600
vt 0.405941 0.069307
vt 0.435644 0.069307
vt 0.435644 0.970297
vt 0.257426 0.564357
vt 0.475248 0.029703
vt 0.683168 0.841584
vt 0.564356 0.970297
vt 0.524753 0.029703
vt 0.495804 0.120804
vt 0.564357 0.069307
vt 0.594059 0.069307
vt 0.653465 0.128713
vt 0.643856 0.910600
vt 0.742574 0.554456
vt 0.712871 0.811881
vt 0.693069 0.128713
vt 0.742575 0.712871
vt 0.752475 0.069307
vt 0.772277 0.524753
vt 0.772277 0.069307
vt 0.871287 0.405941
vt 0.841584 0.524753
vt 0.841584 0.841584
vt 0.811881 0.029703
vt 0.871287 0.841584
vt 0.900990 0.029703
vt 0.953935 0.108348
vt 0.970297 0.306931
vt 0.970297 0.108911
vt 0.000000 0.000000
s 0
f 8/8/1 9/9/1 3/3/1
f 7/7/1 5/5/1 4/4/1
f 6/6/1 5/5/1 7/7/1
f 4/4/1 10/10/1 7/7/1
f 12/12/1 13/13/1 9/9/1
f 23/23/1 11/11/1 21/21/1
f 23/23/1 16/16/1 11/11/1
f 26/26/1 15/15/1 18/18/1
f 23/23/1 17/17/1 16/16/1
f 19/19/1 22/22/1 26/26/1
f 24/24/1 20/20/1 23/23/1
f 25/25/1 26/26/1 22/22/1
f 29/29/1 21/21/1 15/15/1
f 28/28/1 26/26/1 27/27/1
f 37/37/1 45/45/1 33/33/1
f 29/29/1 36/36/1 31/31/1
f 37/37/1 33/33/1 35/35/1
f 38/38/1 36/36/1 29/29/1
f 38/38/1 29/29/1 45/45/1
f 42/42/1 40/40/1 39/39/1
f 44/44/1 45/45/1 41/41/1
f 46/46/1 45/45/1 44/44/1
f 9/9/1 2/2/1 1/1/1
f 3/3/1 9/9/1 1/1/1
f 9/9/1 13/13/1 2/2/1
f 13/13/1 4/4/1 2/2/1
f 4/4/1 21/21/1 10/10/1
f 13/13/1 21/21/1 4/4/1
f 11/11/1 16/16/1 14/14/1
f 15/15/1 21/21/1 13/13/1
f 23/23/1 20/20/1 17/17/1
f 19/19/1 26/26/1 18/18/1
f 26/26/1 29/29/1 15/15/1
f 30/30/1 24/24/1 23/23/1
f 28/28/1 29/29/1 26/26/1
f 31/31/1 23/23/1 21/21/1
f 29/29/1 31/31/1 21/21/1
f 33/33/1 45/45/1 29/29/1
f 31/31/1 34/34/1 23/23/1
f 41/41/1 45/45/1 37/37/1
f 38/38/1 39/39/1 36/36/1
f 38/38/1 42/42/1 39/39/1
f 43/43/1 44/44/1 41/41/1
f 43/43/1 47/47/1 44/44/1
f 25/25/1 27/27/1 26/26/1
f 32/32/1 23/23/1 34/34/1
