####
#
# OBJ File Generated by Meshlab
#
####
# Object player.obj
#
# Vertices: 38
# Faces: 36
#
####
vn 0.0000000 0.0000000 1.0000000
v 1.5147430 -0.2566340 -0.0000000 0.000000 0.000000 0.000000
vn 0.0000000 0.0000000 1.0000000
v 1.5147430 -0.1235640 -0.0000000 0.000000 0.000000 0.000000
vn 0.0000000 0.0000000 1.0000000
v 1.5590990 -0.3009900 -0.0000000 0.000000 0.000000 0.000000
vn 0.0000000 0.0000000 1.0000000
v 1.5781090 -0.0601980 -0.0000000 0.000000 0.000000 0.000000
vn 0.0000000 0.0000000 1.0000000
v 1.5781090 0.2186140 0.0000000 0.000000 0.000000 0.000000
vn 0.0000000 0.0000000 1.0000000
v 1.5971190 0.2186140 0.0000000 0.000000 0.000000 0.000000
vn 0.0000000 0.0000000 1.0000000
v 1.5971190 0.0158420 0.0000000 0.000000 0.000000 0.000000
vn 0.0000000 0.0000000 1.0000000
v 1.6161290 -0.3009900 -0.0000000 0.000000 0.000000 0.000000
vn 0.0000000 0.0000000 1.0000000
v 1.6351390 0.0158420 0.0000000 0.000000 0.000000 0.000000
vn 0.0000000 0.0000000 1.0000000
v 1.6604850 0.1362380 0.0000000 0.000000 0.000000 0.000000
vn 0.0000000 0.0000000 1.0000000
v 1.6414750 -0.2756440 -0.0000000 0.000000 0.000000 0.000000
vn 0.0000000 0.0000000 1.0000000
v 1.6794950 0.1996040 0.0000000 0.000000 0.000000 0.000000
vn 0.0000000 0.0000000 1.0000000
v 1.6985050 0.2186140 0.0000000 0.000000 0.000000 0.000000
vn 0.0000000 0.0000000 1.0000000
v 1.7225471 0.2639020 0.0000000 0.000000 0.000000 0.000000
vn 0.0000000 0.0000000 1.0000000
v 1.7745450 0.3009900 0.0000000 0.000000 0.000000 0.000000
vn 0.0000000 0.0000000 1.0000000
v 1.6604850 0.0411880 0.0000000 0.000000 0.000000 0.000000
vn 0.0000000 0.0000000 1.0000000
v 1.7998910 -0.3009900 -0.0000000 0.000000 0.000000 0.000000
vn 0.0000000 0.0000000 1.0000000
v 1.9329600 0.2186140 0.0000000 0.000000 0.000000 0.000000
vn 0.0000000 0.0000000 1.0000000
v 1.8569210 0.3009900 0.0000000 0.000000 0.000000 0.000000
vn 0.0000000 0.0000000 1.0000000
v 1.8315740 -0.3009900 -0.0000000 0.000000 0.000000 0.000000
vn 0.0000000 0.0000000 1.0000000
v 1.7745450 -0.2756440 -0.0000000 0.000000 0.000000 0.000000
vn 0.0000000 0.0000000 1.0000000
v 1.8569210 -0.2756440 -0.0000000 0.000000 0.000000 0.000000
vn 0.0000000 0.0000000 1.0000000
v 1.9089180 0.2639020 0.0000000 0.000000 0.000000 0.000000
vn 0.0000000 0.0000000 1.0000000
v 1.9709800 0.0348510 0.0000000 0.000000 0.000000 0.000000
vn 0.0000000 0.0000000 1.0000000
v 1.9519700 0.1996040 0.0000000 0.000000 0.000000 0.000000
vn 0.0000000 0.0000000 1.0000000
v 1.9709800 0.1362380 0.0000000 0.000000 0.000000 0.000000
vn 0.0000000 0.0000000 1.0000000
v 1.9899900 0.0158420 0.0000000 0.000000 0.000000 0.000000
vn 0.0000000 0.0000000 1.0000000
v 1.9899900 -0.2756440 -0.0000000 0.000000 0.000000 0.000000
vn 0.0000000 0.0000000 1.0000000
v 2.0533559 -0.0601980 -0.0000000 0.000000 0.000000 0.000000
vn 0.0000000 0.0000000 1.0000000
v 2.0343471 0.0158420 0.0000000 0.000000 0.000000 0.000000
vn 0.0000000 0.0000000 1.0000000
v 2.0343471 0.2186140 0.0000000 0.000000 0.000000 0.000000
vn 0.0000000 0.0000000 1.0000000
v 2.0153370 -0.3009900 -0.0000000 0.000000 0.000000 0.000000
vn 0.0000000 0.0000000 1.0000000
v 2.0533559 0.2186140 0.0000000 0.000000 0.000000 0.000000
vn 0.0000000 0.0000000 1.0000000
v 2.0723660 -0.3009900 -0.0000000 0.000000 0.000000 0.000000
vn 0.0000000 0.0000000 1.0000000
v 2.1058159 -0.2502970 -0.0000000 0.000000 0.000000 0.000000
vn 0.0000000 0.0000000 1.0000000
v 2.1167231 -0.1235640 -0.0000000 0.000000 0.000000 0.000000
vn 0.0000000 0.0000000 1.0000000
v 2.1167231 -0.2502970 -0.0000000 0.000000 0.000000 0.000000
vn 0.0000000 0.0000000 1.0000000
v 2.1167231 -0.2502970 -0.0000000 0.000000 0.000000 0.000000
# 38 vertices, 0 vertices normals

f 8//8 11//11 3//3
f 7//7 5//5 4//4
f 6//6 5//5 7//7
f 4//4 9//9 7//7
f 18//18 10//10 16//16
f 18//18 13//13 10//10
f 18//18 14//14 13//13
f 19//19 15//15 18//18
f 20//20 21//21 17//17
f 29//29 16//16 11//11
f 28//28 36//36 29//29
f 29//29 27//27 24//24
f 33//33 31//31 30//30
f 35//35 36//36 32//32
f 37//37 36//36 35//35
f 11//11 2//2 1//1
f 3//3 11//11 1//1
f 11//11 4//4 2//2
f 4//4 16//16 9//9
f 11//11 16//16 4//4
f 10//10 13//13 12//12
f 18//18 15//15 14//14
f 21//21 29//29 11//11
f 23//23 19//19 18//18
f 22//22 29//29 21//21
f 24//24 18//18 16//16
f 29//29 24//24 16//16
f 24//24 26//26 18//18
f 32//32 36//36 28//28
f 29//29 30//30 27//27
f 29//29 33//33 30//30
f 34//34 35//35 32//32
f 34//34 38//38 35//35
f 20//20 22//22 21//21
f 25//25 18//18 26//26
f 22//22 28//28 29//29
# 36 faces, 0 coords texture

# End of File
